<?xml version="1.0" encoding="UTF-8" standalone="no"?>
<!-- Created with Inkscape (http://www.inkscape.org/) -->

<svg
   xmlns:dc="http://purl.org/dc/elements/1.1/"
   xmlns:cc="http://creativecommons.org/ns#"
   xmlns:rdf="http://www.w3.org/1999/02/22-rdf-syntax-ns#"
   xmlns:svg="http://www.w3.org/2000/svg"
   xmlns="http://www.w3.org/2000/svg"
   xmlns:sodipodi="http://sodipodi.sourceforge.net/DTD/sodipodi-0.dtd"
   xmlns:inkscape="http://www.inkscape.org/namespaces/inkscape"
   sodipodi:docname="mvc2.svg"
   inkscape:version="0.48.2 r9819"
   version="1.1"
   id="svg2"
   height="235.53438"
   width="290.35269">
  <sodipodi:namedview
     id="base"
     pagecolor="#ffffff"
     bordercolor="#666666"
     borderopacity="1.0"
     inkscape:pageopacity="0.0"
     inkscape:pageshadow="2"
     inkscape:zoom="1.4"
     inkscape:cx="72.685737"
     inkscape:cy="111.26537"
     inkscape:document-units="px"
     inkscape:current-layer="layer1"
     showgrid="false"
     inkscape:window-width="1858"
     inkscape:window-height="1057"
     inkscape:window-x="-8"
     inkscape:window-y="-8"
     inkscape:window-maximized="1"
     fit-margin-top="15"
     fit-margin-left="15"
     fit-margin-right="15"
     fit-margin-bottom="15" />
  <defs
     id="defs4">
    <inkscape:perspective
       id="perspective4200"
       inkscape:persp3d-origin="145.17635 : 78.511459 : 1"
       inkscape:vp_z="290.35269 : 117.76719 : 1"
       inkscape:vp_y="0 : 1000 : 0"
       inkscape:vp_x="0 : 117.76719 : 1"
       sodipodi:type="inkscape:persp3d" />
    <filter
       id="filterDesaturate"
       inkscape:label="Desaturate"
       x="0"
       y="0"
       width="1"
       height="1"
       inkscape:menu="Color"
       inkscape:menu-tooltip="Render in shades of gray by reducing saturation to zero"
       color-interpolation-filters="sRGB">
      <feColorMatrix
         id="feColorMatrix3468"
         type="saturate"
         values="0.5" />
    </filter>
  </defs>
  <metadata
     id="metadata7">
    <rdf:RDF>
      <cc:Work
         rdf:about="">
        <dc:format>image/svg+xml</dc:format>
        <dc:type
           rdf:resource="http://purl.org/dc/dcmitype/StillImage" />
        <dc:title />
      </cc:Work>
    </rdf:RDF>
  </metadata>
  <g
     transform="translate(-52.142849,-35.219315)"
     id="layer1"
     inkscape:groupmode="layer"
     inkscape:label="Layer 1">
    <path
       inkscape:connector-curvature="0"
       id="path3923"
       d="m 243.80199,144.4098 -3.48203,3.48203 5.20728,5.20728 5.20728,5.20728 -3.36942,3.36942 -3.36941,3.36941 -5.20456,-5.20456 -5.20455,-5.20455 -3.71353,3.6315 -3.71353,3.6315 0.56605,-10.17375 0.56606,-10.17377 0.93527,-0.0349 c 2.90058,-0.10815 16.8416,-0.55257 17.85611,-0.56923 l 1.20101,-0.0197 -3.48203,3.48203 0,0 z"
       style="fill:#000000;fill-opacity:1;stroke:none" />
    <path
       inkscape:connector-curvature="0"
       id="path3923-4"
       d="m 162.63516,158.34146 -3.48204,-3.48204 -5.20727,5.20728 -5.20728,5.20729 -3.36942,-3.36942 -3.36941,-3.36942 5.20455,-5.20455 5.20456,-5.20456 -3.63151,-3.71353 -3.6315,-3.71353 10.17376,0.56606 10.17376,0.56605 0.0349,0.93527 c 0.10815,2.90058 0.55257,16.8416 0.56923,17.85611 l 0.0197,1.20102 -3.48203,-3.48203 0,0 z"
       style="fill:#000000;fill-opacity:1;stroke:none" />
    <path
       inkscape:connector-curvature="0"
       id="path3923-0"
       d="m 195.73637,201.07356 0,4.92434 7.3642,0 7.36421,0 0,4.76507 0,4.76507 -7.36036,0 -7.36035,0 -0.058,5.19373 -0.058,5.19371 -6.79367,-7.59419 -6.79368,-7.59419 0.63668,-0.686 c 1.97455,-2.12749 11.51809,-12.29953 12.22367,-13.02868 l 0.8353,-0.86319 0,4.92433 0,0 z"
       style="fill:#000000;fill-opacity:1;stroke:none" />
    <g
       id="model"
       inkscape:label="#g3037">
      <path
         sodipodi:type="arc"
         style="fill:#006da2;fill-opacity:1;stroke:none"
         id="path3111"
         sodipodi:cx="370"
         sodipodi:cy="416.64789"
         sodipodi:rx="104.28571"
         sodipodi:ry="104.28571"
         d="m 474.28571,416.64789 c 0,57.59541 -46.6903,104.28571 -104.28571,104.28571 -57.59541,0 -104.28571,-46.6903 -104.28571,-104.28571 0,-57.59541 46.6903,-104.28572 104.28571,-104.28572 57.59541,0 104.28571,46.69031 104.28571,104.28572 z"
         transform="matrix(0.42883477,0,0,0.42883477,37.583884,-83.732446)" />
      <text
         xml:space="preserve"
         style="font-size:59.13460541px;font-style:normal;font-variant:normal;font-weight:600;font-stretch:normal;text-align:start;line-height:125%;letter-spacing:0px;word-spacing:0px;writing-mode:lr-tb;text-anchor:start;fill:#ffffff;fill-opacity:0.6935484;stroke:none;font-family:Segoe UI Semibold;-inkscape-font-specification:'Segoe UI Semibold, Semi-Bold'"
         x="168.90877"
         y="115.64354"
         id="text4555"
         sodipodi:linespacing="125%"><tspan
           sodipodi:role="line"
           id="tspan4557"
           x="168.90877"
           y="115.64354">M</tspan></text>
    </g>
    <g
       id="view"
       inkscape:label="#g3047">
      <path
         sodipodi:type="arc"
         style="fill:#0088cc;fill-opacity:1;stroke:none"
         id="path3111-1"
         sodipodi:cx="370"
         sodipodi:cy="416.64789"
         sodipodi:rx="104.28571"
         sodipodi:ry="104.28571"
         d="m 474.28571,416.64789 c 0,57.59541 -46.6903,104.28571 -104.28571,104.28571 -57.59541,0 -104.28571,-46.6903 -104.28571,-104.28571 0,-57.59541 46.6903,-104.28572 104.28571,-104.28572 57.59541,0 104.28571,46.69031 104.28571,104.28572 z"
         transform="matrix(0.42883477,0,0,0.42883477,-46.804676,32.359256)" />
      <text
         xml:space="preserve"
         style="font-size:63.21509933px;font-style:normal;font-variant:normal;font-weight:600;font-stretch:normal;text-align:start;line-height:125%;letter-spacing:0px;word-spacing:0px;writing-mode:lr-tb;text-anchor:start;fill:#ffffff;fill-opacity:0.6935484;stroke:none;font-family:Segoe UI Semibold;-inkscape-font-specification:'Segoe UI Semibold, Semi-Bold'"
         x="91.569305"
         y="233.16382"
         id="text4555-1"
         sodipodi:linespacing="125%"><tspan
           sodipodi:role="line"
           id="tspan4557-6"
           x="91.569305"
           y="233.16382">V</tspan></text>
    </g>
    <g
       id="controller"
       inkscape:label="#g3042">
      <path
         sodipodi:type="arc"
         style="fill:#009de4;fill-opacity:1;stroke:none"
         id="path3111-1-7"
         sodipodi:cx="370"
         sodipodi:cy="416.64789"
         sodipodi:rx="104.28571"
         sodipodi:ry="104.28571"
         d="m 474.28571,416.64789 c 0,57.59541 -46.6903,104.28571 -104.28571,104.28571 -57.59541,0 -104.28571,-46.6903 -104.28571,-104.28571 0,-57.59541 46.6903,-104.28572 104.28571,-104.28572 57.59541,0 104.28571,46.69031 104.28571,104.28572 z"
         transform="matrix(0.42883477,0,0,0.42883477,121.97242,32.359256)" />
      <text
         xml:space="preserve"
         style="font-size:63.21509933px;font-style:normal;font-variant:normal;font-weight:600;font-stretch:normal;text-align:start;line-height:125%;letter-spacing:0px;word-spacing:0px;writing-mode:lr-tb;text-anchor:start;fill:#ffffff;fill-opacity:0.6935484;stroke:none;font-family:Segoe UI Semibold;-inkscape-font-specification:'Segoe UI Semibold, Semi-Bold'"
         x="259.14893"
         y="233.16382"
         id="text4555-1-8"
         sodipodi:linespacing="125%"><tspan
           sodipodi:role="line"
           id="tspan4557-6-8"
           x="259.14893"
           y="233.16382">C</tspan></text>
    </g>
  </g>
</svg>
